G04*
G04 #@! TF.GenerationSoftware,Altium Limited,Altium Designer,19.0.14 (431)*
G04*
G04 Layer_Color=16711935*
%FSLAX25Y25*%
%MOIN*%
G70*
G01*
G75*
%ADD32C,0.06800*%
%ADD33R,0.07532X0.07532*%
%ADD34C,0.07532*%
%ADD35R,0.07532X0.07532*%
%ADD67C,0.03300*%
D32*
X44000Y318500D02*
D03*
D33*
X118500Y313500D02*
D03*
X12000Y325500D02*
D03*
Y162000D02*
D03*
Y80532D02*
D03*
Y243500D02*
D03*
X194500Y130500D02*
D03*
D34*
X118500Y303500D02*
D03*
X51500Y76500D02*
D03*
X61500D02*
D03*
X71500D02*
D03*
X12000Y255500D02*
D03*
Y265500D02*
D03*
Y275500D02*
D03*
Y285500D02*
D03*
Y315500D02*
D03*
Y305500D02*
D03*
Y295500D02*
D03*
Y92000D02*
D03*
Y102000D02*
D03*
Y112000D02*
D03*
Y122000D02*
D03*
Y152000D02*
D03*
Y142000D02*
D03*
Y132000D02*
D03*
Y10531D02*
D03*
Y20531D02*
D03*
Y30531D02*
D03*
Y40532D02*
D03*
Y70531D02*
D03*
Y60532D02*
D03*
Y50532D02*
D03*
Y173500D02*
D03*
Y183500D02*
D03*
Y193500D02*
D03*
Y203500D02*
D03*
Y233500D02*
D03*
Y223500D02*
D03*
Y213500D02*
D03*
X194500Y160500D02*
D03*
Y150500D02*
D03*
Y140500D02*
D03*
Y170500D02*
D03*
Y180500D02*
D03*
Y190500D02*
D03*
Y200500D02*
D03*
X41500Y38500D02*
D03*
X51500D02*
D03*
X61500D02*
D03*
X71500D02*
D03*
X101500D02*
D03*
X91500D02*
D03*
X81500D02*
D03*
D35*
X41500Y76500D02*
D03*
X111500Y38500D02*
D03*
D67*
X55358Y238000D02*
D03*
X55453Y242000D02*
D03*
X55374Y246000D02*
D03*
X101500Y53000D02*
D03*
M02*
