G04*
G04 #@! TF.GenerationSoftware,Altium Limited,Altium Designer,19.0.14 (431)*
G04*
G04 Layer_Physical_Order=1*
G04 Layer_Color=255*
%FSLAX25Y25*%
%MOIN*%
G70*
G01*
G75*
%ADD14C,0.00600*%
%ADD36R,0.09055X0.07480*%
%ADD37R,0.07087X0.07480*%
%ADD38R,0.01575X0.05315*%
%ADD39R,0.05906X0.01575*%
%ADD40R,0.01102X0.05906*%
%ADD41R,0.01575X0.05906*%
%ADD42R,0.05906X0.01102*%
%ADD43R,0.04528X0.05512*%
%ADD44R,0.02362X0.05118*%
%ADD45R,0.05906X0.05118*%
%ADD46R,0.02362X0.02362*%
%ADD47R,0.02362X0.03150*%
%ADD48R,0.01000X0.06600*%
%ADD49R,0.07874X0.11024*%
%ADD50R,0.04921X0.04331*%
%ADD51R,0.07874X0.11811*%
%ADD52R,0.19685X0.19685*%
%ADD53R,0.03543X0.07874*%
%ADD54R,0.07874X0.03543*%
%ADD55C,0.02500*%
%ADD56C,0.02000*%
%ADD57C,0.03500*%
%ADD58C,0.05000*%
%ADD59C,0.01200*%
%ADD60C,0.04000*%
%ADD61R,0.07000X0.26000*%
%ADD62C,0.06000*%
%ADD63R,0.06732X0.06732*%
%ADD64C,0.06732*%
%ADD65R,0.06732X0.06732*%
%ADD66C,0.02500*%
G36*
X14807Y103966D02*
X15208Y103616D01*
X15608Y103308D01*
X16008Y103040D01*
X16406Y102814D01*
X16804Y102629D01*
X17200Y102485D01*
X17595Y102382D01*
X17989Y102321D01*
X18382Y102300D01*
Y101700D01*
X17989Y101679D01*
X17595Y101618D01*
X17200Y101515D01*
X16804Y101371D01*
X16406Y101186D01*
X16008Y100960D01*
X15608Y100692D01*
X15208Y100384D01*
X14807Y100034D01*
X14404Y99644D01*
Y104356D01*
X14807Y103966D01*
D02*
G37*
G36*
Y93966D02*
X15208Y93616D01*
X15608Y93308D01*
X16008Y93040D01*
X16406Y92814D01*
X16804Y92629D01*
X17200Y92485D01*
X17595Y92382D01*
X17989Y92321D01*
X18382Y92300D01*
Y91700D01*
X17989Y91679D01*
X17595Y91618D01*
X17200Y91515D01*
X16804Y91371D01*
X16406Y91186D01*
X16008Y90960D01*
X15608Y90692D01*
X15208Y90384D01*
X14807Y90034D01*
X14404Y89644D01*
Y94356D01*
X14807Y93966D01*
D02*
G37*
G36*
X42043Y73140D02*
X41992Y73122D01*
X41947Y73092D01*
X41908Y73050D01*
X41875Y72996D01*
X41848Y72930D01*
X41827Y72852D01*
X41812Y72762D01*
X41803Y72660D01*
X41800Y72546D01*
X41200D01*
X41197Y72660D01*
X41188Y72762D01*
X41173Y72852D01*
X41152Y72930D01*
X41125Y72996D01*
X41092Y73050D01*
X41053Y73092D01*
X41008Y73122D01*
X40957Y73140D01*
X40900Y73146D01*
X42100D01*
X42043Y73140D01*
D02*
G37*
G36*
X53466Y73694D02*
X53116Y73292D01*
X52808Y72891D01*
X52540Y72492D01*
X52314Y72094D01*
X52129Y71696D01*
X51985Y71300D01*
X51882Y70905D01*
X51821Y70511D01*
X51800Y70118D01*
X51200D01*
X51179Y70511D01*
X51118Y70905D01*
X51015Y71300D01*
X50871Y71696D01*
X50686Y72094D01*
X50460Y72492D01*
X50192Y72891D01*
X49884Y73292D01*
X49534Y73694D01*
X49144Y74096D01*
X53856D01*
X53466Y73694D01*
D02*
G37*
G36*
X41821Y44489D02*
X41882Y44095D01*
X41985Y43700D01*
X42129Y43304D01*
X42314Y42906D01*
X42540Y42508D01*
X42808Y42109D01*
X43116Y41708D01*
X43466Y41306D01*
X43856Y40904D01*
X39144D01*
X39534Y41306D01*
X39884Y41708D01*
X40192Y42109D01*
X40460Y42508D01*
X40686Y42906D01*
X40871Y43304D01*
X41015Y43700D01*
X41118Y44095D01*
X41179Y44489D01*
X41200Y44882D01*
X41800D01*
X41821Y44489D01*
D02*
G37*
G36*
X61800Y44882D02*
X61821Y44489D01*
X61882Y44095D01*
X61985Y43700D01*
X62129Y43304D01*
X62314Y42906D01*
X62540Y42508D01*
X62808Y42109D01*
X63116Y41708D01*
X63466Y41306D01*
X63856Y40904D01*
X59144D01*
X59534Y41306D01*
X59884Y41708D01*
X60192Y42109D01*
X60460Y42508D01*
X60686Y42906D01*
X60871Y43304D01*
X61015Y43700D01*
X61118Y44095D01*
X61179Y44489D01*
X61200Y44882D01*
X61800D01*
D02*
G37*
G36*
X61200Y71000D02*
X61186Y71350D01*
X61146Y71679D01*
X61078Y71988D01*
X60982Y72276D01*
X60860Y72543D01*
X60711Y72790D01*
X60534Y73016D01*
X60330Y73222D01*
X60099Y73407D01*
X59840Y73571D01*
X63160D01*
X62901Y73407D01*
X62670Y73222D01*
X62466Y73016D01*
X62290Y72790D01*
X62140Y72543D01*
X62018Y72276D01*
X61922Y71988D01*
X61854Y71679D01*
X61814Y71350D01*
X61800Y71000D01*
X61200D01*
D02*
G37*
G36*
X74288Y73288D02*
X74168Y73402D01*
X74054Y73500D01*
X73946Y73581D01*
X73843Y73646D01*
X73747Y73694D01*
X73655Y73726D01*
X73570Y73741D01*
X73491Y73740D01*
X73417Y73722D01*
X73349Y73687D01*
X74313Y74651D01*
X74278Y74583D01*
X74260Y74509D01*
X74259Y74430D01*
X74274Y74345D01*
X74306Y74253D01*
X74354Y74157D01*
X74419Y74054D01*
X74500Y73946D01*
X74598Y73832D01*
X74712Y73712D01*
X74288Y73288D01*
D02*
G37*
G36*
X81800Y43500D02*
X81810Y43213D01*
X81839Y42949D01*
X81887Y42706D01*
X81955Y42485D01*
X82043Y42286D01*
X82149Y42108D01*
X82276Y41953D01*
X82421Y41819D01*
X82586Y41707D01*
X82771Y41617D01*
X80229D01*
X80414Y41707D01*
X80579Y41819D01*
X80724Y41953D01*
X80850Y42108D01*
X80957Y42286D01*
X81045Y42485D01*
X81113Y42706D01*
X81161Y42949D01*
X81190Y43213D01*
X81200Y43500D01*
X81800D01*
D02*
G37*
G36*
X91800D02*
X91810Y43213D01*
X91839Y42949D01*
X91887Y42706D01*
X91955Y42485D01*
X92043Y42286D01*
X92150Y42108D01*
X92276Y41953D01*
X92421Y41819D01*
X92586Y41707D01*
X92771Y41617D01*
X90229D01*
X90414Y41707D01*
X90579Y41819D01*
X90724Y41953D01*
X90851Y42108D01*
X90957Y42286D01*
X91045Y42485D01*
X91113Y42706D01*
X91161Y42949D01*
X91190Y43213D01*
X91200Y43500D01*
X91800D01*
D02*
G37*
G36*
X111800Y42454D02*
X111803Y42338D01*
X111812Y42234D01*
X111827Y42142D01*
X111848Y42063D01*
X111875Y41995D01*
X111908Y41940D01*
X111947Y41897D01*
X111992Y41867D01*
X112043Y41848D01*
X112100Y41842D01*
X110900D01*
X110957Y41848D01*
X111008Y41867D01*
X111053Y41897D01*
X111092Y41940D01*
X111125Y41995D01*
X111152Y42063D01*
X111173Y42142D01*
X111188Y42234D01*
X111197Y42338D01*
X111200Y42454D01*
X111800D01*
D02*
G37*
G36*
X18382Y111700D02*
X17989Y111679D01*
X17595Y111618D01*
X17200Y111515D01*
X16804Y111371D01*
X16406Y111186D01*
X16008Y110960D01*
X15608Y110692D01*
X15208Y110384D01*
X14807Y110034D01*
X14404Y109644D01*
Y114356D01*
X14807Y113966D01*
X15208Y113616D01*
X15608Y113308D01*
X16008Y113040D01*
X16406Y112814D01*
X16804Y112629D01*
X17200Y112485D01*
X17595Y112382D01*
X17989Y112321D01*
X18382Y112300D01*
Y111700D01*
D02*
G37*
G36*
Y121700D02*
X17989Y121679D01*
X17595Y121618D01*
X17200Y121515D01*
X16804Y121371D01*
X16406Y121186D01*
X16008Y120960D01*
X15608Y120692D01*
X15208Y120384D01*
X14807Y120034D01*
X14404Y119644D01*
Y124356D01*
X14807Y123966D01*
X15208Y123616D01*
X15608Y123308D01*
X16008Y123040D01*
X16406Y122814D01*
X16804Y122629D01*
X17200Y122485D01*
X17595Y122382D01*
X17989Y122321D01*
X18382Y122300D01*
Y121700D01*
D02*
G37*
G36*
X17000Y131700D02*
X16714Y131690D01*
X16449Y131661D01*
X16206Y131613D01*
X15985Y131545D01*
X15786Y131457D01*
X15608Y131351D01*
X15453Y131224D01*
X15319Y131079D01*
X15207Y130914D01*
X15117Y130729D01*
Y133271D01*
X15207Y133086D01*
X15319Y132921D01*
X15453Y132776D01*
X15608Y132650D01*
X15786Y132543D01*
X15985Y132455D01*
X16206Y132387D01*
X16449Y132339D01*
X16714Y132310D01*
X17000Y132300D01*
Y131700D01*
D02*
G37*
G36*
X17500Y141700D02*
X17150Y141686D01*
X16821Y141646D01*
X16512Y141578D01*
X16224Y141482D01*
X15957Y141360D01*
X15710Y141210D01*
X15484Y141034D01*
X15278Y140830D01*
X15093Y140599D01*
X14929Y140340D01*
Y143660D01*
X15093Y143401D01*
X15278Y143170D01*
X15484Y142966D01*
X15710Y142789D01*
X15957Y142640D01*
X16224Y142518D01*
X16512Y142422D01*
X16821Y142354D01*
X17150Y142314D01*
X17500Y142300D01*
Y141700D01*
D02*
G37*
G36*
X18382Y151700D02*
X17989Y151679D01*
X17595Y151618D01*
X17200Y151515D01*
X16804Y151371D01*
X16406Y151186D01*
X16008Y150960D01*
X15608Y150692D01*
X15208Y150384D01*
X14807Y150034D01*
X14404Y149644D01*
Y154356D01*
X14807Y153966D01*
X15208Y153616D01*
X15608Y153308D01*
X16008Y153040D01*
X16406Y152814D01*
X16804Y152629D01*
X17200Y152485D01*
X17595Y152382D01*
X17989Y152321D01*
X18382Y152300D01*
Y151700D01*
D02*
G37*
G36*
X15954Y161700D02*
X15838Y161697D01*
X15734Y161688D01*
X15642Y161673D01*
X15563Y161652D01*
X15495Y161625D01*
X15440Y161592D01*
X15397Y161553D01*
X15367Y161508D01*
X15348Y161457D01*
X15342Y161400D01*
Y162600D01*
X15348Y162543D01*
X15367Y162492D01*
X15397Y162447D01*
X15440Y162408D01*
X15495Y162375D01*
X15563Y162348D01*
X15642Y162327D01*
X15734Y162312D01*
X15838Y162303D01*
X15954Y162300D01*
Y161700D01*
D02*
G37*
G36*
X71500Y267000D02*
D01*
D02*
G37*
G36*
X78500Y263000D02*
D01*
D02*
G37*
G36*
X90980Y265520D02*
D01*
D02*
G37*
G36*
X118200Y297118D02*
X118179Y297511D01*
X118118Y297905D01*
X118015Y298300D01*
X117871Y298696D01*
X117686Y299094D01*
X117460Y299492D01*
X117192Y299891D01*
X116884Y300292D01*
X116534Y300693D01*
X116144Y301096D01*
X120856D01*
X120466Y300693D01*
X120116Y300292D01*
X119808Y299891D01*
X119540Y299492D01*
X119314Y299094D01*
X119129Y298696D01*
X118985Y298300D01*
X118882Y297905D01*
X118821Y297511D01*
X118800Y297118D01*
X118200D01*
D02*
G37*
G36*
X122454Y313200D02*
X122338Y313197D01*
X122234Y313188D01*
X122142Y313173D01*
X122063Y313152D01*
X121995Y313125D01*
X121940Y313092D01*
X121897Y313053D01*
X121867Y313008D01*
X121848Y312957D01*
X121842Y312900D01*
Y314100D01*
X121848Y314043D01*
X121867Y313992D01*
X121897Y313947D01*
X121940Y313908D01*
X121995Y313875D01*
X122063Y313848D01*
X122142Y313827D01*
X122234Y313812D01*
X122338Y313803D01*
X122454Y313800D01*
Y313200D01*
D02*
G37*
G36*
X114546Y313800D02*
X114662Y313803D01*
X114766Y313812D01*
X114858Y313827D01*
X114937Y313848D01*
X115005Y313875D01*
X115060Y313908D01*
X115103Y313947D01*
X115133Y313992D01*
X115152Y314043D01*
X115158Y314100D01*
Y312900D01*
X115152Y312957D01*
X115133Y313008D01*
X115103Y313053D01*
X115060Y313092D01*
X115005Y313125D01*
X114937Y313152D01*
X114858Y313173D01*
X114766Y313188D01*
X114662Y313197D01*
X114546Y313200D01*
Y313800D01*
D02*
G37*
D14*
X81000Y300000D02*
Y306500D01*
X72000Y300500D02*
Y306500D01*
X71969D02*
X72000D01*
X93000Y271520D02*
X102000D01*
X95500D02*
Y276567D01*
X92980Y266823D02*
Y271520D01*
X57374Y142126D02*
X64752Y134748D01*
X51398Y142126D02*
X57374D01*
X100500Y281000D02*
X106500D01*
X90500Y271520D02*
X92980D01*
X32500Y186500D02*
X37000D01*
X28000D02*
X32500D01*
X39000Y194000D02*
Y198980D01*
Y194000D02*
X47701D01*
X111500Y73500D02*
Y80532D01*
X74500Y73500D02*
X111500D01*
X71500Y76500D02*
X74500Y73500D01*
X61500Y71000D02*
X114000D01*
X61500D02*
Y76500D01*
X111500Y80532D02*
X124035D01*
X114000Y75532D02*
X124035D01*
X114000Y71000D02*
Y75532D01*
X116532Y70531D02*
X124035D01*
X116532Y68500D02*
Y70531D01*
X51500Y68500D02*
X116532D01*
X51500D02*
Y76500D01*
X41500Y66000D02*
X116532D01*
Y60532D02*
Y66000D01*
Y60532D02*
X124035D01*
X41500Y66000D02*
Y76500D01*
X126000Y165728D02*
Y170000D01*
X133000Y208500D02*
X139500D01*
X160031Y271480D02*
Y308968D01*
Y271480D02*
X163000D01*
X157500D02*
Y308968D01*
X154000Y271480D02*
X157500D01*
X157472Y308968D02*
X157500D01*
X130500Y297000D02*
Y313500D01*
Y256500D02*
Y297000D01*
X134500D01*
X167000D02*
Y302000D01*
X162591D02*
X167000D01*
X162591D02*
Y308968D01*
X118500Y313500D02*
X130500D01*
X148419Y301500D02*
X152354D01*
Y308968D01*
X163000Y266980D02*
Y271480D01*
X158321Y230480D02*
X163000D01*
X158182Y230341D02*
X158321Y230480D01*
X153503Y230341D02*
X158182D01*
X152800Y231044D02*
Y233800D01*
X154000Y235000D01*
X152800Y231044D02*
X153503Y230341D01*
X57000Y168500D02*
X60000D01*
X56217Y167717D02*
X57000Y168500D01*
X51398Y167717D02*
X56217D01*
X62248Y165748D02*
X65000Y168500D01*
X51398Y165748D02*
X62248D01*
X63311Y161811D02*
X65000Y163500D01*
X51398Y161811D02*
X63311D01*
X50500Y183500D02*
X51398Y182602D01*
X54500Y187500D02*
X58500D01*
X60847Y185153D01*
X102969Y156500D02*
Y157327D01*
X104122Y158480D01*
X106358Y153500D02*
Y181051D01*
X106327Y181083D02*
X106358Y181051D01*
X80626Y157874D02*
X82657Y155842D01*
X77063Y153937D02*
X79000Y152000D01*
X72000Y150000D02*
X74500Y147500D01*
X68437Y146063D02*
X71000Y143500D01*
X82500Y135500D02*
X85000Y138000D01*
Y138189D01*
X84469Y133468D02*
X89500Y138500D01*
X86437Y131437D02*
X89000Y134000D01*
X90374Y127374D02*
X93000Y130000D01*
X94311Y123311D02*
X97000Y126000D01*
X100216Y122716D02*
X107500Y130000D01*
X100216Y118898D02*
Y122716D01*
X107500Y130000D02*
Y140157D01*
X113602D01*
X66752Y136248D02*
X69248D01*
X71500Y138500D01*
X66752Y118898D02*
Y136248D01*
X58906Y144095D02*
X66752Y136248D01*
X51398Y144095D02*
X58906D01*
X47000Y163779D02*
X51398D01*
X47000Y144095D02*
Y163779D01*
Y144095D02*
X51398D01*
X41500Y145500D02*
Y169665D01*
Y142106D02*
Y145500D01*
X45980Y142106D02*
X46000Y142126D01*
X41500Y142106D02*
X45980D01*
X41500Y169665D02*
X51366D01*
X158999Y203998D02*
X159000Y204000D01*
X158999Y203502D02*
Y203998D01*
Y203502D02*
X160500Y202000D01*
Y197180D02*
Y202000D01*
X164000Y204500D02*
X187000D01*
X155500Y213000D02*
X164000Y204500D01*
X155500Y213000D02*
Y217480D01*
X141000Y223480D02*
X158000D01*
Y217480D02*
Y223480D01*
X160500Y217480D02*
Y226500D01*
X145000D02*
X160500D01*
X145000D02*
Y230480D01*
X172000Y250980D02*
X176000D01*
X172000D02*
Y259500D01*
Y246980D02*
Y250980D01*
X140500Y246980D02*
X145000D01*
X136000D02*
X140500D01*
Y250980D01*
X90000Y210980D02*
Y214149D01*
X43500Y211480D02*
X47701D01*
X39000D02*
X43500D01*
Y214278D01*
X71969Y86500D02*
Y89480D01*
Y86500D02*
X72000D01*
X71969Y89480D02*
X80968D01*
X71969D02*
Y94000D01*
X111500Y48000D02*
X116000D01*
X111500Y38500D02*
Y61500D01*
X116000Y119980D02*
X130500D01*
X116000D02*
Y120000D01*
X106327Y90531D02*
X124035D01*
X106327D02*
Y118878D01*
X104122Y85532D02*
X124035D01*
X104122D02*
Y118878D01*
X46000Y142126D02*
X48500D01*
X64752Y111000D02*
Y134748D01*
Y107480D02*
Y111000D01*
X105500Y130500D02*
Y142126D01*
X98248Y123248D02*
X105500Y130500D01*
X98248Y118898D02*
Y123248D01*
X64892Y174589D02*
X65000Y174480D01*
X64892Y174589D02*
Y180994D01*
X64784Y181102D02*
X64892Y180994D01*
X63000Y190500D02*
X66752Y186748D01*
Y181102D02*
Y186748D01*
X113571Y142106D02*
X119000D01*
X105500Y142126D02*
X113602D01*
X144000Y114500D02*
X158000D01*
Y118000D01*
Y114500D02*
X162000D01*
X144000D02*
Y119980D01*
X162000Y114500D02*
Y121260D01*
X153000D02*
Y125520D01*
Y118000D02*
Y121260D01*
X119000Y165728D02*
X126000D01*
X113571D02*
X119000D01*
Y142106D02*
Y165728D01*
Y142106D02*
X126000D01*
Y157500D02*
Y165728D01*
X119000Y167717D02*
Y178500D01*
X115000Y182500D02*
X119000Y178500D01*
X113602Y167717D02*
X119000D01*
X121500Y170000D02*
Y193980D01*
Y170000D02*
X126000D01*
Y174500D01*
X161240Y175504D02*
Y189500D01*
X150500D02*
X161240D01*
X150500D02*
Y197180D01*
X166000Y191980D02*
X171000D01*
X153000D02*
X166000D01*
Y188500D02*
Y191980D01*
X184000Y100000D02*
X190965D01*
X161240Y159480D02*
Y175504D01*
X157500Y169480D02*
Y183457D01*
X153760Y159480D02*
Y175504D01*
X165500Y208500D02*
Y217480D01*
X126000Y194000D02*
Y199000D01*
Y193980D02*
Y194000D01*
X88374Y189000D02*
Y192480D01*
Y181083D02*
Y189000D01*
X84437Y181083D02*
Y189000D01*
X88374D01*
X84437D02*
Y193980D01*
X70657Y189000D02*
Y193980D01*
Y181083D02*
Y189000D01*
X84437D01*
X129000Y186500D02*
X130500D01*
Y139260D02*
Y186500D01*
X37000Y166000D02*
Y174500D01*
X47701Y191500D02*
Y194000D01*
X98216Y111000D02*
Y118878D01*
Y107480D02*
Y111000D01*
X94592Y167480D02*
X94717D01*
X98216Y170980D01*
Y181083D01*
X64752Y111000D02*
X98216D01*
X67469Y107480D02*
X71969D01*
X90000Y61500D02*
X111500D01*
X166500Y35531D02*
X190965D01*
X161437D02*
X166500D01*
Y47000D01*
X124035Y35531D02*
X161437D01*
Y65059D01*
X197500Y50532D02*
Y55532D01*
X190965Y50532D02*
X197500D01*
Y35531D02*
Y50532D01*
Y55532D02*
Y60532D01*
X190965Y55532D02*
X197500D01*
Y60532D02*
Y65531D01*
X190965Y60532D02*
X197500D01*
X190965Y65531D02*
X197500D01*
Y70531D01*
X190965D02*
X197500D01*
Y111000D01*
X190965Y35531D02*
X197500D01*
X180000Y104469D02*
Y111000D01*
X197500D01*
X74532Y151969D02*
X79500Y147000D01*
X87500Y155000D02*
X88000D01*
X83500Y151000D02*
X84000D01*
X78594Y155905D02*
X83500Y151000D01*
X51398Y155905D02*
X78594D01*
X51398Y153937D02*
X77063D01*
X82657Y159843D02*
X87500Y155000D01*
X51398Y159843D02*
X82657D01*
X51398Y151969D02*
X74532D01*
X63000Y211480D02*
Y215000D01*
X51398Y150000D02*
X72000D01*
X51398Y157874D02*
X80626D01*
X51398Y148031D02*
X70468D01*
X75500Y143000D01*
X51398Y146063D02*
X68437D01*
X63000Y206461D02*
Y211480D01*
X62783Y181083D02*
Y186153D01*
X47701Y191500D02*
X57437D01*
X62783Y186153D01*
X60847Y181102D02*
Y185153D01*
X80532Y118898D02*
Y137531D01*
X85500Y142500D01*
X82500Y118898D02*
Y135500D01*
X84469Y118898D02*
Y133468D01*
X86437Y118898D02*
Y131437D01*
X88406Y118898D02*
Y129405D01*
X93500Y134500D01*
X90374Y118898D02*
Y127374D01*
X92343Y125343D02*
X97500Y130500D01*
X92343Y118898D02*
Y125343D01*
X94311Y118898D02*
Y123311D01*
X12000Y162000D02*
X23500D01*
Y140157D02*
Y162000D01*
X20500Y138189D02*
Y152000D01*
X12000D02*
X20500D01*
X12000Y142000D02*
X17500D01*
Y136221D02*
Y142000D01*
Y136221D02*
X51398D01*
X20500Y138189D02*
X51398D01*
X27000Y126142D02*
X51398D01*
X27000Y92000D02*
Y126142D01*
X12000Y92000D02*
X27000D01*
X24500Y128347D02*
X51398D01*
X24500Y102000D02*
Y128347D01*
X12000Y102000D02*
X24500D01*
X22000Y112000D02*
Y130315D01*
X12000Y112000D02*
X22000D01*
Y130315D02*
X51398D01*
X19500Y132283D02*
X51398D01*
X19500Y122000D02*
Y132283D01*
X12000Y122000D02*
X19500D01*
X12000Y132000D02*
X17000D01*
Y134252D01*
X92500Y176000D02*
X94500Y174000D01*
X78563Y176000D02*
X92500D01*
X78563D02*
Y181102D01*
X86437Y176000D02*
Y181102D01*
X100000Y214500D02*
X125980D01*
X126000Y214480D01*
Y206480D02*
Y214480D01*
X123567Y76000D02*
X124035Y75532D01*
X130500Y139260D02*
X135000D01*
X136000Y164000D02*
X139500D01*
X47701Y194000D02*
Y198480D01*
X54000Y211480D02*
X63000D01*
X46000Y171653D02*
Y184000D01*
Y171653D02*
X51398D01*
Y173858D02*
Y182602D01*
X50000Y188000D02*
X56898Y181102D01*
X58642D01*
X23500Y140157D02*
X51398D01*
X17000Y134252D02*
X51398D01*
X126000Y186500D02*
X129000D01*
Y190000D01*
X41500Y38500D02*
Y45000D01*
X58500D01*
Y61500D01*
X63000D01*
Y57000D02*
Y61500D01*
X95000Y53000D02*
X101500D01*
X95000Y43500D02*
Y53000D01*
X91500Y43500D02*
X95000D01*
X119343Y140157D02*
X121000Y138500D01*
X113602Y140157D02*
X119343D01*
X88374Y192480D02*
X108000D01*
X74594Y170500D02*
X91500D01*
X74594D02*
Y181083D01*
X97327Y163980D02*
X100185Y166839D01*
X149500Y246980D02*
Y253000D01*
X145000Y271480D02*
X154000D01*
X145000Y266980D02*
Y271480D01*
Y246980D02*
Y259500D01*
X118500Y287000D02*
Y303000D01*
X95500Y287000D02*
X118500D01*
X112000Y313500D02*
X118500D01*
X112000Y301500D02*
Y313500D01*
X85500Y318000D02*
X90000D01*
X85500Y297433D02*
Y318000D01*
X72000D02*
X81000D01*
Y313980D02*
Y318000D01*
X107000Y301500D02*
X112000D01*
X32500Y166000D02*
X37000D01*
X28000D02*
X32500D01*
X28000D02*
Y174500D01*
Y157461D02*
Y166000D01*
X37000Y157461D02*
Y166000D01*
Y145500D02*
X41500D01*
X37000D02*
Y149980D01*
X28000Y145500D02*
X37000D01*
X28000D02*
Y149980D01*
X41500Y169665D02*
Y186500D01*
X37000D02*
X41500D01*
X37000Y181980D02*
Y186500D01*
X28000Y181980D02*
Y186500D01*
X126000Y136366D02*
X130500D01*
X126000D02*
Y142106D01*
Y144500D02*
X130500D01*
X126000D02*
Y149740D01*
Y181980D02*
Y186500D01*
X130500Y119980D02*
Y136366D01*
Y119980D02*
X135000D01*
X144000Y139260D02*
X153000D01*
X135000D02*
X144000D01*
Y132980D02*
Y139260D01*
X135000Y132980D02*
Y139260D01*
X153000Y121260D02*
X157500D01*
Y137260D01*
X153000Y139260D02*
X171000D01*
X153000Y133000D02*
Y139260D01*
X171000Y133000D02*
Y139260D01*
X172760Y139500D02*
X173000Y139260D01*
X175260Y139500D02*
X175500Y139260D01*
X157500Y137260D02*
X162000D01*
X148500Y145480D02*
X153000D01*
X143240D02*
X148500D01*
X148000Y187980D02*
X148500D01*
Y145480D02*
Y187980D01*
X139500Y158457D02*
Y164000D01*
X187000Y143480D02*
Y204500D01*
X148000D02*
Y217480D01*
X135000Y204500D02*
X148000D01*
X135000Y181980D02*
Y204500D01*
X84437Y193980D02*
X90000D01*
X70657D02*
X72000D01*
X62783Y101480D02*
Y118878D01*
X171000Y121260D02*
X180000D01*
X162000D02*
X171000D01*
Y125520D01*
X174500Y86000D02*
X185000D01*
X171500Y89500D02*
X183000D01*
X168500Y93000D02*
X175000D01*
X140000Y96500D02*
X165500D01*
X177500Y82500D02*
X185000D01*
X175000Y93000D02*
Y104469D01*
X183000Y89500D02*
Y97500D01*
X175500Y139260D02*
X180000D01*
X171000D02*
X175500D01*
X180000Y133000D02*
Y139260D01*
X162000Y133000D02*
Y137260D01*
X140000Y96500D02*
X140000Y96500D01*
X140000Y96500D02*
Y104469D01*
X183000Y97500D02*
X184000D01*
X185000Y86000D02*
Y95531D01*
Y45500D02*
Y82500D01*
X183500Y40532D02*
Y79000D01*
X180500D02*
X183500D01*
X185000Y95531D02*
X190965D01*
X183500Y40532D02*
X190965D01*
X185000Y45500D02*
X188996D01*
X190965Y100000D02*
Y100531D01*
X184000Y97500D02*
Y100000D01*
X107000Y301500D02*
Y305169D01*
X100185Y166839D02*
Y181083D01*
X100154Y160480D02*
X102154Y162480D01*
X81500Y38500D02*
Y43500D01*
X81000D02*
Y49520D01*
Y43500D02*
X81500D01*
X90000D02*
X91500D01*
Y38500D02*
Y43500D01*
X61500Y38500D02*
Y45000D01*
X63000D01*
Y49520D01*
X165500Y225480D02*
X181000D01*
X165500Y217480D02*
Y225480D01*
X181000D02*
Y235000D01*
X188965Y45531D02*
X190965D01*
X188965D02*
X188996Y45500D01*
X131000Y93500D02*
X134000D01*
X124035Y55532D02*
X135000D01*
X131000Y93500D02*
Y100531D01*
X124035D02*
X131000D01*
X190965Y95500D02*
Y95531D01*
X81000Y61500D02*
X90000D01*
X72000D02*
X81000D01*
X72000Y57000D02*
Y61500D01*
Y45000D02*
Y49520D01*
X63000Y45000D02*
X72000D01*
X106500Y271520D02*
Y281000D01*
X100500Y276567D02*
Y281000D01*
X90500Y276567D02*
Y290500D01*
Y271520D02*
Y276567D01*
X81000Y290500D02*
Y291500D01*
X49965Y269000D02*
X52965Y272000D01*
X65000Y310500D02*
Y318000D01*
X72000D01*
X135000Y168480D02*
X139000D01*
X144000D02*
Y174500D01*
X90000Y43500D02*
Y49520D01*
X81000Y57000D02*
Y61500D01*
X90000Y57000D02*
Y61500D01*
X117000Y193980D02*
Y198980D01*
Y206461D02*
Y210980D01*
X108000D02*
X117000D01*
X104122Y158480D02*
Y181083D01*
X102154Y162480D02*
Y181083D01*
X54000Y207142D02*
Y211480D01*
X39000Y206461D02*
Y211480D01*
X47701Y207142D02*
Y211480D01*
X72000Y210980D02*
X81000D01*
X67500D02*
X72000D01*
Y206461D02*
Y210980D01*
X81000D02*
X90000D01*
X81000Y206461D02*
Y210980D01*
X90000D02*
X99000D01*
X90000Y206461D02*
Y210980D01*
X99000D02*
X108000D01*
X99000Y206461D02*
Y210980D01*
X108000Y206461D02*
Y210980D01*
X67500Y193980D02*
Y210980D01*
X63000Y193980D02*
X67500D01*
X63000D02*
Y198980D01*
X54000Y193980D02*
X63000D01*
X54000D02*
Y198480D01*
X72000Y193980D02*
Y198980D01*
Y193980D02*
X81000D01*
Y198980D01*
X108000Y192480D02*
Y193980D01*
X90000D02*
X99000D01*
X90000D02*
Y198980D01*
X99000Y193980D02*
Y198980D01*
X108000Y193980D02*
Y198980D01*
X143240Y145480D02*
Y150504D01*
X135760Y143480D02*
Y150504D01*
Y143480D02*
X162000D01*
X153000Y145480D02*
Y150000D01*
X124035Y50500D02*
X135000D01*
Y168480D02*
Y174500D01*
X148000Y187980D02*
Y197180D01*
X162000Y143480D02*
Y150000D01*
X171000Y143480D02*
X187000D01*
X171000D02*
Y150000D01*
X180000Y145480D02*
X185000D01*
X180000D02*
Y150000D01*
Y159480D02*
Y172980D01*
Y121260D02*
Y125520D01*
X162000Y121260D02*
Y125520D01*
X89969Y89480D02*
X98968D01*
X80968D02*
X89969D01*
Y94000D01*
X80968Y89480D02*
Y94000D01*
X98968Y89480D02*
Y94000D01*
X64752Y107480D02*
X67469D01*
Y89480D02*
Y107480D01*
X62968Y89480D02*
X67469D01*
X62968D02*
Y94000D01*
X98216Y107480D02*
X98968D01*
Y101480D02*
Y107480D01*
X89969Y101480D02*
Y107480D01*
X98216D01*
X71969D02*
X80968D01*
X71969Y101480D02*
Y107480D01*
X80968Y101480D02*
Y107480D01*
X62783Y101480D02*
X62968D01*
X135000Y119980D02*
X144000D01*
X135000D02*
Y125500D01*
X144000Y119980D02*
Y125500D01*
X124035Y50500D02*
Y50532D01*
X178000Y223480D02*
X179000Y222480D01*
X168000Y223480D02*
X178000D01*
X168000Y217480D02*
Y223480D01*
X170500Y211480D02*
X179000D01*
X144000Y202480D02*
X155500D01*
X144000Y181980D02*
Y202480D01*
X155500Y197180D02*
Y202480D01*
X185000Y145480D02*
Y202480D01*
X171000Y159480D02*
Y172980D01*
X170500Y197180D02*
Y202480D01*
X185000D01*
X180000Y182823D02*
Y191980D01*
X171000D02*
X180000D01*
X171000Y182823D02*
Y191980D01*
X153000D02*
Y197180D01*
X170500Y211480D02*
Y217480D01*
X163000D02*
Y230480D01*
X145000Y242480D02*
Y246980D01*
X136000Y242480D02*
Y246980D01*
X172000D02*
X181000D01*
X163000D02*
X172000D01*
Y242480D02*
Y246980D01*
X181000Y242480D02*
Y246980D01*
X163000Y242480D02*
Y246980D01*
Y230480D02*
X172000D01*
X163000D02*
Y235000D01*
X172000Y230480D02*
Y235000D01*
X136000Y230480D02*
X145000D01*
X136000D02*
Y235000D01*
X145000Y230480D02*
Y235000D01*
Y230480D02*
X149500D01*
Y246980D01*
X154000D01*
Y242480D02*
Y246980D01*
X163000Y250980D02*
Y259500D01*
X154000Y250980D02*
Y259500D01*
X163000Y271480D02*
X172000D01*
Y266980D02*
Y271480D01*
X154000Y266980D02*
Y271480D01*
X100500Y291000D02*
Y297433D01*
X90500Y290500D02*
Y297433D01*
X95500Y276567D02*
Y287000D01*
Y297433D01*
X90500D02*
Y302000D01*
X95500D01*
X90000D02*
X90500D01*
X93000Y253020D02*
Y259520D01*
Y253020D02*
X111000D01*
Y259520D01*
X107000Y313831D02*
Y318000D01*
X99000D02*
X107000D01*
X95500Y302000D02*
X99000D01*
Y306500D01*
X90000Y318000D02*
X99000D01*
X95500Y297433D02*
Y302000D01*
X90000D02*
Y306500D01*
X111000Y267000D02*
Y271520D01*
X106500D02*
X111000D01*
X101000Y259020D02*
X102000Y258020D01*
X106500Y255020D02*
Y271520D01*
X102000Y255020D02*
X106500D01*
X102000D02*
Y258020D01*
Y268020D02*
Y271520D01*
X72000Y313980D02*
Y318000D01*
X90000Y313980D02*
Y318000D01*
X99000Y313980D02*
Y318000D01*
D36*
X142709Y319500D02*
D03*
X172236D02*
D03*
D37*
X152945D02*
D03*
X162000D02*
D03*
D38*
X162591Y308968D02*
D03*
X160031D02*
D03*
X157472D02*
D03*
X154913D02*
D03*
X152354D02*
D03*
D39*
X113602Y173858D02*
D03*
X51398D02*
D03*
Y126142D02*
D03*
X113602D02*
D03*
D40*
X104154Y181102D02*
D03*
X102185D02*
D03*
X96280D02*
D03*
X100216D02*
D03*
X98248D02*
D03*
X90374D02*
D03*
X94311D02*
D03*
X92343D02*
D03*
X84469D02*
D03*
X88406D02*
D03*
X86437D02*
D03*
X78563D02*
D03*
X82500D02*
D03*
X80532D02*
D03*
X62815D02*
D03*
X64784D02*
D03*
X60847D02*
D03*
X68721D02*
D03*
X70689D02*
D03*
X66752D02*
D03*
X72658D02*
D03*
X76595D02*
D03*
X74626D02*
D03*
Y118898D02*
D03*
X76595D02*
D03*
X72658D02*
D03*
X66752D02*
D03*
X70689D02*
D03*
X68721D02*
D03*
X60847D02*
D03*
X64784D02*
D03*
X62815D02*
D03*
X80532D02*
D03*
X82500D02*
D03*
X78563D02*
D03*
X86437D02*
D03*
X88406D02*
D03*
X84469D02*
D03*
X92343D02*
D03*
X94311D02*
D03*
X90374D02*
D03*
X98248D02*
D03*
X100216D02*
D03*
X96280D02*
D03*
X102185D02*
D03*
X104154D02*
D03*
D41*
X58642Y181102D02*
D03*
X106358D02*
D03*
Y118898D02*
D03*
X58642D02*
D03*
D42*
X51398Y142126D02*
D03*
Y144095D02*
D03*
Y140157D02*
D03*
Y134252D02*
D03*
Y138189D02*
D03*
Y136221D02*
D03*
Y128347D02*
D03*
Y132283D02*
D03*
Y130315D02*
D03*
Y148031D02*
D03*
Y150000D02*
D03*
Y146063D02*
D03*
Y153937D02*
D03*
Y155905D02*
D03*
Y151969D02*
D03*
Y159843D02*
D03*
Y161811D02*
D03*
Y157874D02*
D03*
Y165748D02*
D03*
Y167717D02*
D03*
Y163779D02*
D03*
Y169685D02*
D03*
Y171653D02*
D03*
X113602Y142126D02*
D03*
Y144095D02*
D03*
Y140157D02*
D03*
Y134252D02*
D03*
Y138189D02*
D03*
Y136221D02*
D03*
Y128347D02*
D03*
Y132283D02*
D03*
Y130315D02*
D03*
Y148031D02*
D03*
Y150000D02*
D03*
Y146063D02*
D03*
Y153937D02*
D03*
Y155905D02*
D03*
Y151969D02*
D03*
Y159843D02*
D03*
Y161811D02*
D03*
Y157874D02*
D03*
Y165748D02*
D03*
Y167717D02*
D03*
Y163779D02*
D03*
Y169685D02*
D03*
Y171653D02*
D03*
D43*
X47701Y198480D02*
D03*
Y207142D02*
D03*
X54000D02*
D03*
Y198480D02*
D03*
D44*
X85500Y297433D02*
D03*
X90500D02*
D03*
X95500D02*
D03*
X100500D02*
D03*
Y276567D02*
D03*
X95500D02*
D03*
X90500D02*
D03*
X85500D02*
D03*
D45*
X153000Y125520D02*
D03*
Y133000D02*
D03*
X180000Y125520D02*
D03*
Y133000D02*
D03*
X171000Y125520D02*
D03*
Y133000D02*
D03*
X63000Y206461D02*
D03*
Y198980D02*
D03*
X39000D02*
D03*
Y206461D02*
D03*
X99000Y198980D02*
D03*
Y206461D02*
D03*
X90000Y198980D02*
D03*
Y206461D02*
D03*
X81000Y198980D02*
D03*
Y206461D02*
D03*
X72000Y198980D02*
D03*
Y206461D02*
D03*
X108000Y198980D02*
D03*
Y206461D02*
D03*
X117000Y198980D02*
D03*
Y206461D02*
D03*
X135000Y125500D02*
D03*
Y132980D02*
D03*
X144000Y125500D02*
D03*
Y132980D02*
D03*
X37000Y149980D02*
D03*
Y157461D02*
D03*
X28000Y149980D02*
D03*
Y157461D02*
D03*
X126000Y157500D02*
D03*
Y150020D02*
D03*
Y174500D02*
D03*
Y181980D02*
D03*
X98968Y101480D02*
D03*
Y94000D02*
D03*
X89969Y101480D02*
D03*
Y94000D02*
D03*
X71969Y101480D02*
D03*
Y94000D02*
D03*
X80968Y101480D02*
D03*
Y94000D02*
D03*
X37000Y181980D02*
D03*
Y174500D02*
D03*
X28000Y182000D02*
D03*
Y174520D02*
D03*
X63000Y49520D02*
D03*
Y57000D02*
D03*
X181000Y242480D02*
D03*
Y235000D02*
D03*
X145000Y242480D02*
D03*
Y235000D02*
D03*
X136000Y242480D02*
D03*
Y235000D02*
D03*
X163000Y242480D02*
D03*
Y235000D02*
D03*
X145000Y259500D02*
D03*
Y266980D02*
D03*
X172000Y259500D02*
D03*
Y266980D02*
D03*
X102000Y267000D02*
D03*
Y259520D02*
D03*
X111000D02*
D03*
Y267000D02*
D03*
X99000Y306500D02*
D03*
Y313980D02*
D03*
X90000Y306500D02*
D03*
Y313980D02*
D03*
X162000Y125520D02*
D03*
Y133000D02*
D03*
X62968Y101480D02*
D03*
Y94000D02*
D03*
X72000Y57000D02*
D03*
Y49520D02*
D03*
X90000Y57000D02*
D03*
Y49520D02*
D03*
X126000Y199000D02*
D03*
Y206480D02*
D03*
X81000Y57000D02*
D03*
Y49520D02*
D03*
X180000Y150000D02*
D03*
Y157480D02*
D03*
X171000Y150000D02*
D03*
Y157480D02*
D03*
X172000Y235000D02*
D03*
Y242480D02*
D03*
X153000Y150000D02*
D03*
Y157480D02*
D03*
X154000Y242480D02*
D03*
Y235000D02*
D03*
X162000Y157480D02*
D03*
Y150000D02*
D03*
X154000Y266980D02*
D03*
Y259500D02*
D03*
X144000Y181980D02*
D03*
Y174500D02*
D03*
X163000Y266980D02*
D03*
Y259500D02*
D03*
X135000Y181980D02*
D03*
Y174500D02*
D03*
X93000Y267000D02*
D03*
Y259520D02*
D03*
X81000Y306500D02*
D03*
Y313980D02*
D03*
X72000D02*
D03*
Y306500D02*
D03*
D46*
X78000Y269839D02*
D03*
Y278500D02*
D03*
X107000Y305169D02*
D03*
Y313831D02*
D03*
D47*
X153760Y175504D02*
D03*
X161240D02*
D03*
X157500Y183457D02*
D03*
X135760Y150504D02*
D03*
X143240D02*
D03*
X139500Y158457D02*
D03*
D48*
X148000Y217480D02*
D03*
X150500D02*
D03*
X155500D02*
D03*
X153000D02*
D03*
X163000D02*
D03*
X165500D02*
D03*
X160500D02*
D03*
X158000D02*
D03*
X170500D02*
D03*
X168000D02*
D03*
Y197180D02*
D03*
X170500D02*
D03*
X158000D02*
D03*
X160500D02*
D03*
X165500D02*
D03*
X163000D02*
D03*
X153000D02*
D03*
X155500D02*
D03*
X150500D02*
D03*
X148000D02*
D03*
D49*
X52465Y270000D02*
D03*
X69000D02*
D03*
D50*
X180000Y172980D02*
D03*
Y182823D02*
D03*
X171000Y172980D02*
D03*
Y182823D02*
D03*
D51*
X50020Y291500D02*
D03*
X73642D02*
D03*
D52*
X161437Y65059D02*
D03*
D53*
X180000Y104469D02*
D03*
X175000D02*
D03*
X170000D02*
D03*
X165000D02*
D03*
X160000D02*
D03*
X155000D02*
D03*
X150000D02*
D03*
X145000D02*
D03*
X140000D02*
D03*
X135000D02*
D03*
D54*
X124035Y35531D02*
D03*
Y40532D02*
D03*
Y45531D02*
D03*
Y50532D02*
D03*
Y55532D02*
D03*
Y60532D02*
D03*
Y65531D02*
D03*
Y70531D02*
D03*
Y75532D02*
D03*
Y80532D02*
D03*
Y85532D02*
D03*
Y90531D02*
D03*
Y100531D02*
D03*
Y95531D02*
D03*
X190965D02*
D03*
Y100531D02*
D03*
Y90531D02*
D03*
Y85532D02*
D03*
Y80532D02*
D03*
Y75532D02*
D03*
Y70531D02*
D03*
Y65531D02*
D03*
Y60532D02*
D03*
Y55532D02*
D03*
Y50532D02*
D03*
Y45531D02*
D03*
Y40532D02*
D03*
Y35531D02*
D03*
D55*
X63142Y294500D02*
X72642D01*
X63142Y288000D02*
X73392D01*
D56*
X85500Y272000D02*
Y276567D01*
X83339Y269839D02*
X85500Y272000D01*
X75000Y291500D02*
X81000D01*
X32500Y186500D02*
Y192500D01*
X44000Y300500D02*
X72000D01*
X32500D02*
X44000D01*
Y318500D01*
X133000Y208500D02*
Y225000D01*
X121500Y193980D02*
X126000D01*
X133000Y194000D02*
Y208500D01*
X126000Y194000D02*
X133000D01*
X117000Y193980D02*
X121500D01*
X81000Y291500D02*
Y300000D01*
Y282000D02*
Y290500D01*
X78000Y282000D02*
X81000D01*
X78000Y278500D02*
Y282000D01*
X108000Y193980D02*
X117000D01*
X81000Y290500D02*
X90500D01*
D57*
X32500Y225000D02*
Y269000D01*
Y192500D02*
Y225000D01*
Y291500D02*
Y300500D01*
Y269000D02*
Y291500D01*
D58*
X50020D01*
X32500Y269000D02*
X49965D01*
X69161Y269839D02*
X78000D01*
X69000Y270000D02*
X69161Y269839D01*
X78000D02*
X83339D01*
D59*
X55358Y238000D02*
X93642D01*
X55453Y242000D02*
X93736D01*
X55374Y246000D02*
X93657D01*
D60*
X32500Y225000D02*
X133000D01*
D61*
X93000Y287000D02*
D03*
D62*
X44000Y318500D02*
D03*
D63*
X118500Y313500D02*
D03*
X12000Y325500D02*
D03*
Y162000D02*
D03*
Y80532D02*
D03*
Y243500D02*
D03*
X194500Y130500D02*
D03*
D64*
X118500Y303500D02*
D03*
X51500Y76500D02*
D03*
X61500D02*
D03*
X71500D02*
D03*
X12000Y255500D02*
D03*
Y265500D02*
D03*
Y275500D02*
D03*
Y285500D02*
D03*
Y315500D02*
D03*
Y305500D02*
D03*
Y295500D02*
D03*
Y92000D02*
D03*
Y102000D02*
D03*
Y112000D02*
D03*
Y122000D02*
D03*
Y152000D02*
D03*
Y142000D02*
D03*
Y132000D02*
D03*
Y10531D02*
D03*
Y20531D02*
D03*
Y30531D02*
D03*
Y40532D02*
D03*
Y70531D02*
D03*
Y60532D02*
D03*
Y50532D02*
D03*
Y173500D02*
D03*
Y183500D02*
D03*
Y193500D02*
D03*
Y203500D02*
D03*
Y233500D02*
D03*
Y223500D02*
D03*
Y213500D02*
D03*
X194500Y160500D02*
D03*
Y150500D02*
D03*
Y140500D02*
D03*
Y170500D02*
D03*
Y180500D02*
D03*
Y190500D02*
D03*
Y200500D02*
D03*
X41500Y38500D02*
D03*
X51500D02*
D03*
X61500D02*
D03*
X71500D02*
D03*
X101500D02*
D03*
X91500D02*
D03*
X81500D02*
D03*
D65*
X41500Y76500D02*
D03*
X111500Y38500D02*
D03*
D66*
X63142Y294500D02*
D03*
Y288000D02*
D03*
X55358Y238000D02*
D03*
X93642D02*
D03*
X55453Y242000D02*
D03*
X93736D02*
D03*
X93657Y246000D02*
D03*
X55374D02*
D03*
X134500Y297000D02*
D03*
X167000D02*
D03*
X130500Y256500D02*
D03*
X148419Y301500D02*
D03*
X65000Y163500D02*
D03*
X60000Y168500D02*
D03*
X65000D02*
D03*
X50500Y183500D02*
D03*
X54500Y187500D02*
D03*
X102969Y156500D02*
D03*
X106358Y153500D02*
D03*
X82657Y155842D02*
D03*
X79000Y152000D02*
D03*
X74500Y147500D02*
D03*
X71000Y143500D02*
D03*
X85000Y138189D02*
D03*
X89000Y134000D02*
D03*
X93000Y130000D02*
D03*
X97000Y126000D02*
D03*
X71500Y138500D02*
D03*
X159000Y204000D02*
D03*
X141000Y223480D02*
D03*
X176000Y250980D02*
D03*
X140500D02*
D03*
X90000Y214149D02*
D03*
X43500Y214278D02*
D03*
X72000Y86500D02*
D03*
X116000Y48000D02*
D03*
Y120000D02*
D03*
X158000Y118000D02*
D03*
X153000D02*
D03*
X115000Y182500D02*
D03*
X166000Y188500D02*
D03*
X157500Y168480D02*
D03*
X165500Y208500D02*
D03*
X139500D02*
D03*
X94592Y167480D02*
D03*
X65000Y174480D02*
D03*
X63000Y190500D02*
D03*
X166500Y47000D02*
D03*
X79500Y147000D02*
D03*
X88000Y155000D02*
D03*
X84000Y151000D02*
D03*
X63000Y215000D02*
D03*
X75500Y143000D02*
D03*
X93500Y134500D02*
D03*
X97500Y130500D02*
D03*
X89500Y138500D02*
D03*
X85500Y142500D02*
D03*
X94500Y174000D02*
D03*
X100000Y214500D02*
D03*
X136000Y164000D02*
D03*
X46000Y184000D02*
D03*
X50000Y188000D02*
D03*
X129000Y190000D02*
D03*
X101500Y53000D02*
D03*
X121000Y138500D02*
D03*
X91500Y170500D02*
D03*
X97327Y163980D02*
D03*
X149500Y253000D02*
D03*
X32500Y166000D02*
D03*
X174500Y86000D02*
D03*
X171500Y89500D02*
D03*
X168500Y93000D02*
D03*
X165500Y96500D02*
D03*
X177500Y82500D02*
D03*
X180500Y79000D02*
D03*
X100154Y160480D02*
D03*
X134000Y93500D02*
D03*
X135000Y55532D02*
D03*
X65000Y310500D02*
D03*
X139000Y168480D02*
D03*
X144000D02*
D03*
X135000Y50500D02*
D03*
X179000Y222480D02*
D03*
Y211480D02*
D03*
X163000Y250980D02*
D03*
X154000D02*
D03*
X100500Y291000D02*
D03*
M02*
