M48
;Layer_Color=9474304
;FILE_FORMAT=2:5
INCH,LZ
;TYPE=PLATED
T1F00S00C0.01200
T2F00S00C0.03740
%
T01
X01015Y0053
X0116Y0048
X0135Y00505
Y0055532
X01665Y0047
X01805Y0079
X01775Y00825
X01745Y0086
X01715Y00895
X01685Y0093
X01655Y00965
X0158Y0118
X0153
X0116Y012
X0121Y01385
X0106358Y01535
X0102969Y01565
X0100154Y016048
X0097327Y016398
X0094592Y016748
X00915Y01705
X00945Y0174
X0088Y0155
X0082657Y0155842
X0084Y0151
X0079Y0152
X00795Y0147
X00745Y01475
X00755Y0143
X0071Y01435
X00715Y01385
X0085Y0138189
X00895Y01385
X0089Y0134
X00935Y01345
X0093Y013
X00975Y01305
X0097Y0126
X00855Y01425
X0065Y01635
Y01685
X006
X0065Y017448
X0063Y01905
X0115Y01825
X0129Y019
X01395Y02085
X0159Y0204
X01655Y02085
X0179Y021148
X0166Y01885
X01575Y016848
X0144
X0139
X0136Y0164
X0134Y00935
X0072Y00865
X00505Y01835
X0046Y0184
X005Y0188
X00545Y01875
X00325Y0166
X00435Y0214278
X0055358Y0238
X0055453Y0242
X0055374Y0246
X0093657
X0093736Y0242
X0093642Y0238
X009Y0214149
X01Y02145
X0063Y0215
X0063142Y0288
Y02945
X0065Y03105
X01005Y0291
X01345Y0297
X0148419Y03015
X0167Y0297
X0163Y025098
X0154
X01495Y0253
X01405Y025098
X01305Y02565
X0141Y022348
X0179Y022248
X0176Y025098
T02
X0012Y0010531
Y0020531
Y0030531
Y0040532
Y0050532
X00415Y00385
X00515
X00615
X00715
X00815
X00915
X01015
X01115
X00715Y00765
X00615
X01945Y01305
Y01405
Y01505
Y01605
Y01705
Y01805
Y01905
Y02005
X0012Y02035
Y01935
Y01835
Y01735
Y0162
Y0152
Y0142
Y0132
Y0122
Y0112
Y0102
Y0092
Y0080532
Y0070531
Y0060532
X00415Y00765
X00515
X0012Y02135
Y02235
Y02335
Y02435
Y02555
Y02655
Y02755
Y02855
Y02955
Y03055
Y03155
Y03255
X0044Y03185
X01185Y03135
Y03035
M30
