G04*
G04 #@! TF.GenerationSoftware,Altium Limited,Altium Designer,19.0.14 (431)*
G04*
G04 Layer_Color=8388736*
%FSLAX25Y25*%
%MOIN*%
G70*
G01*
G75*
%ADD16R,0.09855X0.08280*%
%ADD17R,0.07887X0.08280*%
%ADD18R,0.02375X0.06115*%
%ADD19R,0.06706X0.02375*%
%ADD20R,0.01902X0.06706*%
%ADD21R,0.02375X0.06706*%
%ADD22R,0.06706X0.01902*%
%ADD23R,0.05328X0.06312*%
%ADD24R,0.03162X0.05918*%
%ADD25R,0.06706X0.05918*%
%ADD26R,0.03162X0.03162*%
%ADD27R,0.03162X0.03950*%
%ADD28R,0.08674X0.11824*%
%ADD29R,0.05721X0.05131*%
%ADD30R,0.08674X0.12611*%
%ADD31R,0.20485X0.20485*%
%ADD32C,0.06800*%
%ADD33R,0.07532X0.07532*%
%ADD34C,0.07532*%
%ADD35R,0.07532X0.07532*%
D16*
X142709Y319500D02*
D03*
X172236D02*
D03*
D17*
X152945D02*
D03*
X162000D02*
D03*
D18*
X162591Y308968D02*
D03*
X160031D02*
D03*
X157472D02*
D03*
X154913D02*
D03*
X152354D02*
D03*
D19*
X113602Y173858D02*
D03*
X51398D02*
D03*
Y126142D02*
D03*
X113602D02*
D03*
D20*
X104154Y181102D02*
D03*
X102185D02*
D03*
X96280D02*
D03*
X100216D02*
D03*
X98248D02*
D03*
X90374D02*
D03*
X94311D02*
D03*
X92343D02*
D03*
X84469D02*
D03*
X88406D02*
D03*
X86437D02*
D03*
X78563D02*
D03*
X82500D02*
D03*
X80532D02*
D03*
X62815D02*
D03*
X64784D02*
D03*
X60847D02*
D03*
X68721D02*
D03*
X70689D02*
D03*
X66752D02*
D03*
X72658D02*
D03*
X76595D02*
D03*
X74626D02*
D03*
Y118898D02*
D03*
X76595D02*
D03*
X72658D02*
D03*
X66752D02*
D03*
X70689D02*
D03*
X68721D02*
D03*
X60847D02*
D03*
X64784D02*
D03*
X62815D02*
D03*
X80532D02*
D03*
X82500D02*
D03*
X78563D02*
D03*
X86437D02*
D03*
X88406D02*
D03*
X84469D02*
D03*
X92343D02*
D03*
X94311D02*
D03*
X90374D02*
D03*
X98248D02*
D03*
X100216D02*
D03*
X96280D02*
D03*
X102185D02*
D03*
X104154D02*
D03*
D21*
X58642Y181102D02*
D03*
X106358D02*
D03*
Y118898D02*
D03*
X58642D02*
D03*
D22*
X51398Y142126D02*
D03*
Y144095D02*
D03*
Y140157D02*
D03*
Y134252D02*
D03*
Y138189D02*
D03*
Y136221D02*
D03*
Y128347D02*
D03*
Y132283D02*
D03*
Y130315D02*
D03*
Y148031D02*
D03*
Y150000D02*
D03*
Y146063D02*
D03*
Y153937D02*
D03*
Y155905D02*
D03*
Y151969D02*
D03*
Y159843D02*
D03*
Y161811D02*
D03*
Y157874D02*
D03*
Y165748D02*
D03*
Y167717D02*
D03*
Y163779D02*
D03*
Y169685D02*
D03*
Y171653D02*
D03*
X113602Y142126D02*
D03*
Y144095D02*
D03*
Y140157D02*
D03*
Y134252D02*
D03*
Y138189D02*
D03*
Y136221D02*
D03*
Y128347D02*
D03*
Y132283D02*
D03*
Y130315D02*
D03*
Y148031D02*
D03*
Y150000D02*
D03*
Y146063D02*
D03*
Y153937D02*
D03*
Y155905D02*
D03*
Y151969D02*
D03*
Y159843D02*
D03*
Y161811D02*
D03*
Y157874D02*
D03*
Y165748D02*
D03*
Y167717D02*
D03*
Y163779D02*
D03*
Y169685D02*
D03*
Y171653D02*
D03*
D23*
X47701Y198480D02*
D03*
Y207142D02*
D03*
X54000D02*
D03*
Y198480D02*
D03*
D24*
X85500Y297433D02*
D03*
X90500D02*
D03*
X95500D02*
D03*
X100500D02*
D03*
Y276567D02*
D03*
X95500D02*
D03*
X90500D02*
D03*
X85500D02*
D03*
D25*
X153000Y125520D02*
D03*
Y133000D02*
D03*
X180000Y125520D02*
D03*
Y133000D02*
D03*
X171000Y125520D02*
D03*
Y133000D02*
D03*
X63000Y206461D02*
D03*
Y198980D02*
D03*
X39000D02*
D03*
Y206461D02*
D03*
X99000Y198980D02*
D03*
Y206461D02*
D03*
X90000Y198980D02*
D03*
Y206461D02*
D03*
X81000Y198980D02*
D03*
Y206461D02*
D03*
X72000Y198980D02*
D03*
Y206461D02*
D03*
X108000Y198980D02*
D03*
Y206461D02*
D03*
X117000Y198980D02*
D03*
Y206461D02*
D03*
X135000Y125500D02*
D03*
Y132980D02*
D03*
X144000Y125500D02*
D03*
Y132980D02*
D03*
X37000Y149980D02*
D03*
Y157461D02*
D03*
X28000Y149980D02*
D03*
Y157461D02*
D03*
X126000Y157500D02*
D03*
Y150020D02*
D03*
Y174500D02*
D03*
Y181980D02*
D03*
X98968Y101480D02*
D03*
Y94000D02*
D03*
X89969Y101480D02*
D03*
Y94000D02*
D03*
X71969Y101480D02*
D03*
Y94000D02*
D03*
X80968Y101480D02*
D03*
Y94000D02*
D03*
X37000Y181980D02*
D03*
Y174500D02*
D03*
X28000Y182000D02*
D03*
Y174520D02*
D03*
X63000Y49520D02*
D03*
Y57000D02*
D03*
X181000Y242480D02*
D03*
Y235000D02*
D03*
X145000Y242480D02*
D03*
Y235000D02*
D03*
X136000Y242480D02*
D03*
Y235000D02*
D03*
X163000Y242480D02*
D03*
Y235000D02*
D03*
X145000Y259500D02*
D03*
Y266980D02*
D03*
X172000Y259500D02*
D03*
Y266980D02*
D03*
X102000Y267000D02*
D03*
Y259520D02*
D03*
X111000D02*
D03*
Y267000D02*
D03*
X99000Y306500D02*
D03*
Y313980D02*
D03*
X90000Y306500D02*
D03*
Y313980D02*
D03*
X162000Y125520D02*
D03*
Y133000D02*
D03*
X62968Y101480D02*
D03*
Y94000D02*
D03*
X72000Y57000D02*
D03*
Y49520D02*
D03*
X90000Y57000D02*
D03*
Y49520D02*
D03*
X126000Y199000D02*
D03*
Y206480D02*
D03*
X81000Y57000D02*
D03*
Y49520D02*
D03*
X180000Y150000D02*
D03*
Y157480D02*
D03*
X171000Y150000D02*
D03*
Y157480D02*
D03*
X172000Y235000D02*
D03*
Y242480D02*
D03*
X153000Y150000D02*
D03*
Y157480D02*
D03*
X154000Y242480D02*
D03*
Y235000D02*
D03*
X162000Y157480D02*
D03*
Y150000D02*
D03*
X154000Y266980D02*
D03*
Y259500D02*
D03*
X144000Y181980D02*
D03*
Y174500D02*
D03*
X163000Y266980D02*
D03*
Y259500D02*
D03*
X135000Y181980D02*
D03*
Y174500D02*
D03*
X93000Y267000D02*
D03*
Y259520D02*
D03*
X81000Y306500D02*
D03*
Y313980D02*
D03*
X72000D02*
D03*
Y306500D02*
D03*
D26*
X78000Y269839D02*
D03*
Y278500D02*
D03*
X107000Y305169D02*
D03*
Y313831D02*
D03*
D27*
X153760Y175504D02*
D03*
X161240D02*
D03*
X157500Y183457D02*
D03*
X135760Y150504D02*
D03*
X143240D02*
D03*
X139500Y158457D02*
D03*
D28*
X52465Y270000D02*
D03*
X69000D02*
D03*
D29*
X180000Y172980D02*
D03*
Y182823D02*
D03*
X171000Y172980D02*
D03*
Y182823D02*
D03*
D30*
X50020Y291500D02*
D03*
X73642D02*
D03*
D31*
X161437Y65059D02*
D03*
D32*
X44000Y318500D02*
D03*
D33*
X118500Y313500D02*
D03*
X12000Y325500D02*
D03*
Y162000D02*
D03*
Y80532D02*
D03*
Y243500D02*
D03*
X194500Y130500D02*
D03*
D34*
X118500Y303500D02*
D03*
X51500Y76500D02*
D03*
X61500D02*
D03*
X71500D02*
D03*
X12000Y255500D02*
D03*
Y265500D02*
D03*
Y275500D02*
D03*
Y285500D02*
D03*
Y315500D02*
D03*
Y305500D02*
D03*
Y295500D02*
D03*
Y92000D02*
D03*
Y102000D02*
D03*
Y112000D02*
D03*
Y122000D02*
D03*
Y152000D02*
D03*
Y142000D02*
D03*
Y132000D02*
D03*
Y10531D02*
D03*
Y20531D02*
D03*
Y30531D02*
D03*
Y40532D02*
D03*
Y70531D02*
D03*
Y60532D02*
D03*
Y50532D02*
D03*
Y173500D02*
D03*
Y183500D02*
D03*
Y193500D02*
D03*
Y203500D02*
D03*
Y233500D02*
D03*
Y223500D02*
D03*
Y213500D02*
D03*
X194500Y160500D02*
D03*
Y150500D02*
D03*
Y140500D02*
D03*
Y170500D02*
D03*
Y180500D02*
D03*
Y190500D02*
D03*
Y200500D02*
D03*
X41500Y38500D02*
D03*
X51500D02*
D03*
X61500D02*
D03*
X71500D02*
D03*
X101500D02*
D03*
X91500D02*
D03*
X81500D02*
D03*
D35*
X41500Y76500D02*
D03*
X111500Y38500D02*
D03*
M02*
